<svg preserveAspectRatio="none" width="100%" height="100%" overflow="visible" style="display: block;" viewBox="0 0 24 24" fill="none" xmlns="http://www.w3.org/2000/svg">
<g id="ph:git-branch-light" opacity="0.75">
<path id="Vector" d="M21.5625 6C21.5624 5.46786 21.4113 4.94667 21.1268 4.49696C20.8423 4.04725 20.4361 3.68748 19.9553 3.45943C19.4745 3.23138 18.9389 3.14441 18.4106 3.20863C17.8824 3.27284 17.3832 3.4856 16.971 3.8222C16.5588 4.1588 16.2506 4.60542 16.0822 5.11019C15.9137 5.61496 15.8919 6.15717 16.0193 6.67384C16.1467 7.19051 16.418 7.66044 16.8018 8.02905C17.1856 8.39766 17.6661 8.64982 18.1875 8.75625V10.5C18.1875 10.7486 18.0887 10.9871 17.9129 11.1629C17.7371 11.3387 17.4986 11.4375 17.25 11.4375H9C8.67389 11.4374 8.35247 11.5152 8.0625 11.6644V8.75812C8.7454 8.61873 9.35221 8.23073 9.7653 7.66936C10.1784 7.10798 10.3683 6.41322 10.2983 5.71977C10.2282 5.02632 9.90316 4.38358 9.38615 3.91616C8.86913 3.44874 8.19698 3.18995 7.5 3.18995C6.80302 3.18995 6.13087 3.44874 5.61385 3.91616C5.09684 4.38358 4.7718 5.02632 4.70174 5.71977C4.63169 6.41322 4.82162 7.10798 5.2347 7.66936C5.64779 8.23073 6.2546 8.61873 6.9375 8.75812V15.2456C6.2546 15.385 5.64779 15.773 5.2347 16.3344C4.82162 16.8958 4.63169 17.5905 4.70174 18.284C4.7718 18.9774 5.09684 19.6202 5.61385 20.0876C6.13087 20.555 6.80302 20.8138 7.5 20.8138C8.19698 20.8138 8.86913 20.555 9.38615 20.0876C9.90316 19.6202 10.2282 18.9774 10.2983 18.284C10.3683 17.5905 10.1784 16.8958 9.7653 16.3344C9.35221 15.773 8.7454 15.385 8.0625 15.2456V13.5C8.0625 13.2514 8.16127 13.0129 8.33709 12.8371C8.5129 12.6613 8.75136 12.5625 9 12.5625H17.25C17.797 12.5625 18.3216 12.3452 18.7084 11.9584C19.0952 11.5716 19.3125 11.047 19.3125 10.5V8.75625C19.9474 8.62576 20.5178 8.28036 20.9277 7.77827C21.3375 7.27619 21.5618 6.64813 21.5625 6ZM5.8125 6C5.8125 5.66624 5.91147 5.33998 6.0969 5.06248C6.28232 4.78497 6.54587 4.56868 6.85422 4.44095C7.16257 4.31323 7.50187 4.27981 7.82921 4.34492C8.15656 4.41004 8.45724 4.57076 8.69324 4.80676C8.92924 5.04276 9.08996 5.34344 9.15508 5.67078C9.22019 5.99813 9.18677 6.33743 9.05905 6.64578C8.93132 6.95413 8.71503 7.21768 8.43752 7.40311C8.16002 7.58853 7.83376 7.6875 7.5 7.6875C7.05245 7.6875 6.62323 7.50971 6.30676 7.19324C5.99029 6.87677 5.8125 6.44755 5.8125 6ZM9.1875 18C9.1875 18.3338 9.08853 18.66 8.9031 18.9375C8.71768 19.215 8.45413 19.4313 8.14578 19.559C7.83743 19.6868 7.49813 19.7202 7.17079 19.6551C6.84344 19.59 6.54276 19.4292 6.30676 19.1932C6.07076 18.9572 5.91004 18.6566 5.84492 18.3292C5.77981 18.0019 5.81323 17.6626 5.94095 17.3542C6.06868 17.0459 6.28497 16.7823 6.56248 16.5969C6.83998 16.4115 7.16624 16.3125 7.5 16.3125C7.94755 16.3125 8.37677 16.4903 8.69324 16.8068C9.00971 17.1232 9.1875 17.5524 9.1875 18ZM18.75 7.6875C18.4162 7.6875 18.09 7.58853 17.8125 7.40311C17.535 7.21768 17.3187 6.95413 17.191 6.64578C17.0632 6.33743 17.0298 5.99813 17.0949 5.67078C17.16 5.34344 17.3208 5.04276 17.5568 4.80676C17.7928 4.57076 18.0934 4.41004 18.4208 4.34492C18.7481 4.27981 19.0874 4.31323 19.3958 4.44095C19.7041 4.56868 19.9677 4.78497 20.1531 5.06248C20.3385 5.33998 20.4375 5.66624 20.4375 6C20.4375 6.44755 20.2597 6.87677 19.9432 7.19324C19.6268 7.50971 19.1976 7.6875 18.75 7.6875Z" fill="var(--fill-0, white)"/>
</g>
</svg>
