<svg preserveAspectRatio="none" width="100%" height="100%" overflow="visible" style="display: block;" viewBox="0 0 33.3117 36.685" fill="none" xmlns="http://www.w3.org/2000/svg">
<path id="Vector" d="M30.4333 7.05833L19.5617 0.77C17.765 -0.256667 15.565 -0.256667 13.7867 0.77L2.89667 7.05833C1.1 8.085 0 9.99167 0 12.0633V24.6217C0 26.6933 1.1 28.6 2.89667 29.6267L13.7683 35.915C15.565 36.9417 17.765 36.9417 19.5433 35.915L30.415 29.6267C31.2952 29.1207 32.0264 28.3915 32.5349 27.5129C33.0435 26.6342 33.3114 25.6369 33.3117 24.6217V12.0633C33.3117 9.99167 32.2117 8.085 30.415 7.05833H30.4333ZM26.1617 13.915L17.6367 18.205V27.5183C17.6367 27.6833 17.5817 27.8667 17.5083 28.0133C17.2517 28.4717 16.6467 28.6367 16.1883 28.3617L8.34167 23.9067C8.08419 23.7537 7.871 23.5364 7.72312 23.276C7.57524 23.0156 7.49776 22.7211 7.49833 22.4217V13.75C7.49833 13.3467 7.62667 12.9617 7.84667 12.595H7.82833C8.06667 12.2467 8.36 11.99 8.70833 11.8067L16.83 7.7C17.3433 7.44333 17.93 7.48 18.425 7.755L26.235 12.21C26.4 12.3017 26.5467 12.4483 26.6383 12.6317C26.8767 13.1083 26.675 13.695 26.1983 13.8967L26.1617 13.915Z" fill="var(--fill-0, #4427C5)"/>
</svg>
