<svg preserveAspectRatio="none" width="100%" height="100%" overflow="visible" style="display: block;" viewBox="0 0 24 24" fill="none" xmlns="http://www.w3.org/2000/svg">
<g id="mdi:leads-outline" opacity="0.75">
<path id="Vector" d="M17 21L18.8 22.77C19.3 23.27 20 22.87 20 22.28V18L22.8 14.6C22.9114 14.4514 22.9793 14.2748 22.996 14.0898C23.0126 13.9048 22.9775 13.7189 22.8944 13.5528C22.8114 13.3867 22.6837 13.247 22.5257 13.1493C22.3678 13.0517 22.1857 13 22 13H15C14.2 13 13.7 14 14.2 14.6L17 18V21ZM15 20H2V17C2 14.3 7.3 13 10 13C10.6 13 11.3 13.1 12.1 13.2C11.9 13.8 12 14.5 12.2 15.1C11.5 15 10.7 14.9 10 14.9C7 14.9 3.9 16.4 3.9 17V18.1H14.5L15 18.7V20ZM10 4C7.8 4 6 5.8 6 8C6 10.2 7.8 12 10 12C12.2 12 14 10.2 14 8C14 5.8 12.2 4 10 4ZM10 10C8.9 10 8 9.1 8 8C8 6.9 8.9 6 10 6C11.1 6 12 6.9 12 8C12 9.1 11.1 10 10 10Z" fill="var(--fill-0, white)"/>
</g>
</svg>
