<svg preserveAspectRatio="none" width="100%" height="100%" overflow="visible" style="display: block;" viewBox="0 0 21.5009 17.5" fill="none" xmlns="http://www.w3.org/2000/svg">
<g id="Group">
<path id="Vector" d="M1.25024 2.75L6.75024 0.75L12.2502 2.75L9.75024 4.25V5.75C9.75024 5.75 9.08324 5.25 6.75024 5.25C4.41724 5.25 3.75024 5.75 3.75024 5.75V4.25L1.25024 2.75ZM1.25024 2.75V6.75" stroke="var(--stroke-0, white)" stroke-width="1.5" stroke-linecap="round" stroke-linejoin="round"/>
<path id="Vector_2" d="M9.75024 5.25V6.139C9.75024 7.857 8.40724 9.25 6.75024 9.25C5.09324 9.25 3.75024 7.857 3.75024 6.139V5.25M14.0682 7.78C14.0682 7.78 14.5532 7.427 16.2502 7.427C17.9472 7.427 18.4322 7.779 18.4322 7.779M14.0682 7.78V6.75L12.2502 5.75L16.2502 4.25L20.2502 5.75L18.4322 6.75V7.779M14.0682 7.78V8.068C14.0682 8.6467 14.2981 9.2017 14.7073 9.61091C15.1165 10.0201 15.6715 10.25 16.2502 10.25C16.8289 10.25 17.3839 10.0201 17.7932 9.61091C18.2024 9.2017 18.4322 8.6467 18.4322 8.068V7.779M14.7502 16.75H18.4552C19.2282 16.75 19.8422 16.374 20.3942 15.848C21.5242 14.772 19.6692 13.912 18.9622 13.491C18.3335 13.1199 17.6353 12.8816 16.9109 12.791C16.1864 12.7004 15.451 12.7592 14.7502 12.964M3.13524 12.676C2.19224 13.203 -0.280756 14.278 1.22524 15.623C1.96124 16.28 2.78024 16.75 3.81124 16.75H9.68924C10.7192 16.75 11.5392 16.28 12.2752 15.623C13.7812 14.278 11.3082 13.203 10.3652 12.676C8.15324 11.441 5.34724 11.441 3.13524 12.676Z" stroke="var(--stroke-0, white)" stroke-width="1.5" stroke-linecap="round" stroke-linejoin="round"/>
</g>
</svg>
