<svg preserveAspectRatio="none" width="100%" height="100%" overflow="visible" style="display: block;" viewBox="0 0 20.5 14.5" fill="none" xmlns="http://www.w3.org/2000/svg">
<g id="Group">
<path id="Vector" d="M0.918286 11.4035C1.03229 12.64 1.94112 13.516 3.06438 13.5795C4.52014 13.662 6.86981 13.75 10.25 13.75C13.6302 13.75 15.9799 13.662 17.4356 13.58C18.5589 13.516 19.4677 12.64 19.5813 11.404C19.6722 10.4145 19.75 9.0445 19.75 7.25C19.75 5.455 19.6726 4.085 19.5817 3.0965C19.4677 1.86 18.5589 0.984 17.4356 0.9205C15.9799 0.838 13.6306 0.75 10.25 0.75C6.86936 0.75 4.52014 0.838 3.06438 0.92C1.94112 0.984 1.03229 1.86 0.918286 3.0965C0.82781 4.085 0.75 5.455 0.75 7.25C0.75 9.045 0.82781 10.4145 0.918286 11.4035Z" stroke="var(--stroke-0, white)" stroke-width="1.5" stroke-linejoin="round"/>
<path id="Vector_2" d="M13.75 1.75L13.75 13.75" stroke="var(--stroke-0, white)" stroke-width="1.5" stroke-linecap="round" stroke-linejoin="round"/>
</g>
</svg>
