<svg preserveAspectRatio="none" width="100%" height="100%" overflow="visible" style="display: block;" viewBox="0 0 24 24" fill="none" xmlns="http://www.w3.org/2000/svg">
<g id="ion:people-outline">
<path id="Vector" d="M18.8438 7.875C18.7064 9.78141 17.2922 11.25 15.75 11.25C14.2078 11.25 12.7913 9.78188 12.6563 7.875C12.5156 5.89172 13.8923 4.5 15.75 4.5C17.6077 4.5 18.9844 5.92781 18.8438 7.875Z" stroke="var(--stroke-0, white)" stroke-width="1.5" stroke-linecap="round" stroke-linejoin="round"/>
<path id="Vector_2" d="M15.75 14.25C12.6952 14.25 9.7575 15.7673 9.02156 18.7223C8.92406 19.1133 9.16922 19.5 9.57094 19.5H21.9295C22.3312 19.5 22.575 19.1133 22.4789 18.7223C21.743 15.72 18.8053 14.25 15.75 14.25Z" stroke="var(--stroke-0, white)" stroke-width="1.5" stroke-miterlimit="10"/>
<path id="Vector_3" d="M9.375 8.71594C9.26531 10.2384 8.1225 11.4375 6.89062 11.4375C5.65875 11.4375 4.51406 10.2389 4.40625 8.71594C4.29422 7.13203 5.40656 6 6.89062 6C8.37469 6 9.48703 7.16109 9.375 8.71594Z" stroke="var(--stroke-0, white)" stroke-width="1.5" stroke-linecap="round" stroke-linejoin="round"/>
<path id="Vector_4" d="M9.65625 14.3438C8.81016 13.9561 7.87828 13.807 6.89062 13.807C4.45312 13.807 2.10469 15.0188 1.51641 17.3789C1.43906 17.6911 1.635 18 1.95563 18H7.21875" stroke="var(--stroke-0, white)" stroke-width="1.5" stroke-miterlimit="10" stroke-linecap="round"/>
</g>
</svg>
