<svg width="1317" height="982" viewBox="0 0 1317 982" fill="none" xmlns="http://www.w3.org/2000/svg">
<g clip-path="url(#clip0_82_754)">
<mask id="mask0_82_754" style="mask-type:luminance" maskUnits="userSpaceOnUse" x="160" y="-118" width="875" height="1143">
<path d="M1034.02 -116.971C1007 -83.3709 969.526 -49.5505 918.184 -16.9777C672.875 138.653 685.862 261.776 699.861 394.495C702.285 417.478 704.74 440.748 705.892 464.558C709.797 545.225 708.804 623.736 671.301 684.735C633.793 745.746 559.797 789.193 417.728 799.665C275.954 810.116 195.456 838.791 169.843 898.528C156.027 930.758 158.171 972.062 175.255 1024.44L174.59 1024.81C157.406 972.176 155.249 930.657 169.152 898.23C194.894 838.186 275.594 809.382 417.671 798.909C559.456 788.457 633.27 745.149 670.654 684.34C708.048 623.517 709.035 545.135 705.135 464.595C703.985 440.844 701.529 417.566 699.106 394.574C685.079 261.614 672.069 138.268 917.776 -17.6147C969.165 -50.2186 1006.64 -84.0704 1033.62 -117.694L1034.02 -116.97L1034.02 -116.971Z" fill="white"/>
</mask>
<g mask="url(#mask0_82_754)">
<path d="M1316.22 392.71L1033.62 -117.695L-108.006 514.402L174.596 1024.81L1316.22 392.71Z" fill="url(#paint0_linear_82_754)"/>
</g>
<mask id="mask1_82_754" style="mask-type:luminance" maskUnits="userSpaceOnUse" x="151" y="-119" width="883" height="1145">
<path d="M1033.79 -117.396C1006.97 -87.1498 971.23 -56.9656 923.973 -27.997C676.294 123.837 687.387 247.147 699.341 380.067C701.41 403.082 703.507 426.392 704.294 450.214C706.957 530.931 704.755 609.418 666.321 669.832C627.876 730.257 553.221 772.555 411.006 780.842C269.089 789.107 188.16 816.537 161.632 875.878C145.233 912.557 149.601 961.47 173.159 1025.6L172.497 1025.97C148.833 961.579 144.453 912.451 160.941 875.571C187.605 815.93 268.739 788.372 410.963 780.089C552.89 771.821 627.362 729.656 665.682 669.43C704.007 609.189 706.201 530.832 703.541 450.24C702.758 426.473 700.659 403.159 698.589 380.135C686.613 246.974 675.501 123.443 923.579 -28.6357C970.871 -57.6293 1006.61 -87.837 1033.39 -118.101L1033.79 -117.39L1033.79 -117.396Z" fill="white"/>
</mask>
<g mask="url(#mask1_82_754)">
<path d="M1316.22 392.71L1033.39 -118.104L-110.334 515.156L172.494 1025.97L1316.22 392.71Z" fill="url(#paint1_linear_82_754)"/>
</g>
<mask id="mask2_82_754" style="mask-type:luminance" maskUnits="userSpaceOnUse" x="142" y="-120" width="892" height="1147">
<path d="M1033.19 -118.47C1006.89 -91.3852 973.032 -64.5528 929.658 -38.8727C679.672 109.131 688.861 232.597 698.768 365.682C700.484 388.74 702.222 412.093 702.641 435.898C704.061 516.644 700.648 595.09 661.287 654.904C621.916 714.732 546.62 755.876 404.294 761.97C262.265 768.049 180.924 794.232 153.484 853.156C134.521 893.879 141.271 950.284 171.486 1026.53L170.826 1026.9C140.504 950.393 133.738 893.769 152.798 852.836C180.378 793.615 261.926 767.308 404.261 761.215C546.299 755.136 621.415 714.121 660.654 654.492C699.9 594.849 703.302 516.535 701.884 435.912C701.464 412.11 699.729 388.778 698.015 365.739C688.09 232.408 678.883 108.719 929.271 -39.5206C972.673 -65.2166 1006.52 -92.069 1032.81 -119.167L1033.19 -118.47Z" fill="white"/>
</mask>
<g mask="url(#mask2_82_754)">
<path d="M1316.22 392.71L1032.81 -119.169L-112.593 515.016L170.825 1026.9L1316.22 392.71Z" fill="url(#paint2_linear_82_754)"/>
</g>
<mask id="mask3_82_754" style="mask-type:luminance" maskUnits="userSpaceOnUse" x="133" y="-121" width="900" height="1149">
<path d="M1032.27 -120.129C1006.75 -96.0175 974.897 -72.2808 935.228 -49.6126C682.994 94.5236 690.281 218.115 698.136 351.341C699.497 374.429 700.876 397.803 700.927 421.608C701.104 502.363 696.484 580.747 656.205 639.951C615.919 699.164 539.996 739.146 397.594 743.046C255.488 746.936 173.754 771.863 145.409 830.358C123.883 874.78 133.115 938.617 170.029 1027.34L169.367 1027.71C132.342 938.726 123.099 874.668 144.728 830.031C173.215 771.238 255.16 746.192 397.571 742.293C539.686 738.4 615.422 698.548 655.578 639.53C695.739 580.501 700.344 502.246 700.169 421.61C700.118 397.8 698.74 374.448 697.382 351.387C689.513 217.922 682.211 94.1062 934.853 -50.2644C974.539 -72.9424 1006.39 -96.6913 1031.89 -120.811L1032.27 -120.124L1032.27 -120.129Z" fill="white"/>
</mask>
<g mask="url(#mask3_82_754)">
<path d="M1316.22 392.71L1031.89 -120.815L-114.959 514.176L169.37 1027.7L1316.22 392.71Z" fill="url(#paint3_linear_82_754)"/>
</g>
<mask id="mask4_82_754" style="mask-type:luminance" maskUnits="userSpaceOnUse" x="124" y="-123" width="908" height="1152">
<path d="M1031.07 -122.307C1006.56 -100.995 976.807 -80.1201 940.691 -60.2154C686.265 80.0198 691.648 203.708 697.452 337.037C698.457 360.135 699.475 383.522 699.161 407.337C698.092 488.09 692.266 566.393 651.082 624.966C609.888 683.552 533.361 722.359 390.915 724.066C248.768 725.769 166.657 749.435 137.416 807.483C113.323 855.313 125.073 926.542 168.636 1028.1L167.974 1028.47C124.295 926.648 112.534 855.196 136.739 807.143C166.128 748.796 248.446 725.016 390.902 723.311C533.06 721.608 609.401 682.927 650.459 624.531C691.525 566.125 697.335 487.954 698.401 407.326C698.716 383.532 697.699 360.153 696.695 337.066C690.88 203.495 685.487 79.5797 940.325 -60.8811C976.449 -80.7929 1006.2 -101.672 1030.69 -122.991L1031.07 -122.312L1031.07 -122.307Z" fill="white"/>
</mask>
<g mask="url(#mask4_82_754)">
<path d="M1316.22 392.71L1030.69 -122.987L-117.554 512.775L167.977 1028.47L1316.22 392.71Z" fill="url(#paint4_linear_82_754)"/>
</g>
<mask id="mask5_82_754" style="mask-type:luminance" maskUnits="userSpaceOnUse" x="115" y="-126" width="915" height="1156">
<path d="M1029.6 -124.958C1006.33 -106.27 978.727 -88.0484 946.041 -70.6836C689.487 65.6153 692.964 189.372 696.714 322.776C697.364 345.892 698.022 369.298 697.34 393.094C695.029 473.819 687.999 552.025 645.914 609.957C603.824 667.901 526.708 705.525 384.252 705.038C242.095 704.553 159.632 726.948 129.5 784.541C102.831 835.517 117.101 914.133 167.195 1028.9L166.533 1029.27C116.322 914.236 102.04 835.397 128.831 784.19C159.115 726.305 241.791 703.796 384.258 704.282C526.424 704.768 603.352 667.266 645.304 609.51C687.264 551.747 694.277 473.672 696.585 393.069C697.266 369.273 696.609 345.888 695.96 322.794C692.204 189.146 688.717 65.1647 945.687 -71.3532C978.376 -88.7193 1005.98 -106.943 1029.23 -125.631L1029.6 -124.957L1029.6 -124.958Z" fill="white"/>
</mask>
<g mask="url(#mask5_82_754)">
<path d="M1316.22 392.71L1029.23 -125.629L-120.463 510.933L166.532 1029.27L1316.22 392.71Z" fill="url(#paint5_linear_82_754)"/>
</g>
<mask id="mask6_82_754" style="mask-type:luminance" maskUnits="userSpaceOnUse" x="106" y="-129" width="922" height="1160">
<path d="M1027.86 -128.096C1006.01 -111.852 980.67 -96.0613 951.273 -81.021C692.651 51.312 694.221 175.11 695.915 308.553C696.208 331.675 696.506 355.084 695.459 378.876C691.905 459.558 683.672 537.642 640.702 594.921C597.723 652.21 520.033 688.642 377.604 685.961C235.472 683.286 152.673 704.412 121.659 761.533C92.3974 815.428 109.163 901.437 165.605 1029.79L164.943 1030.15C108.38 901.539 91.6042 815.303 120.995 761.174C152.166 703.761 235.18 682.525 377.621 685.207C519.763 687.883 597.259 651.573 640.095 594.469C682.941 537.354 691.155 459.398 694.703 378.84C695.751 355.062 695.453 331.667 695.159 308.564C693.459 174.876 691.888 50.8544 950.927 -81.6921C980.324 -96.7324 1005.65 -112.523 1027.49 -128.766L1027.86 -128.095L1027.86 -128.096Z" fill="white"/>
</mask>
<g mask="url(#mask6_82_754)">
<path d="M1316.22 392.71L1024.87 -133.509L-126.415 503.933L164.943 1030.15L1316.22 392.71Z" fill="url(#paint6_linear_82_754)"/>
</g>
<mask id="mask7_82_754" style="mask-type:luminance" maskUnits="userSpaceOnUse" x="97" y="-133" width="929" height="1165">
<path d="M1025.9 -131.65C1005.61 -117.683 982.606 -104.134 956.39 -91.2253C695.757 37.109 695.423 160.914 695.062 294.369C694.999 317.486 694.937 340.896 693.521 364.674C688.726 445.291 679.29 523.242 635.444 579.852C591.589 636.473 513.347 671.705 370.976 666.83C228.9 661.967 145.787 681.813 113.896 738.451C82.0234 795.056 101.231 888.487 163.797 1030.78L163.135 1031.15C100.445 888.588 81.2267 794.931 113.237 738.082C145.291 681.156 228.619 661.2 371.001 666.075C513.086 670.938 591.132 635.824 634.842 579.389C678.563 522.942 687.977 445.122 692.766 364.629C694.18 340.873 694.243 317.477 694.304 294.366C694.665 160.667 695.001 36.6364 956.05 -91.9057C982.26 -104.81 1005.25 -118.358 1025.52 -132.32L1025.89 -131.651L1025.9 -131.65Z" fill="white"/>
</mask>
<g mask="url(#mask7_82_754)">
<path d="M1316.22 392.71L1019.57 -143.067L-133.511 495.374L163.138 1031.15L1316.22 392.71Z" fill="url(#paint7_linear_82_754)"/>
</g>
<mask id="mask8_82_754" style="mask-type:luminance" maskUnits="userSpaceOnUse" x="-240" y="-137" width="1264" height="1372">
<path d="M-204.136 1234.5C-217.037 1227.92 -228.489 1222.58 -238.628 1218.38L-239.154 1217.43C-228.68 1221.72 -216.804 1227.23 -203.381 1234.09L-204.136 1234.5ZM1023.73 -135.56C1005.18 -123.715 984.504 -112.242 961.388 -101.301C698.813 23.0062 696.57 146.791 694.156 280.226C693.735 303.335 693.314 326.734 691.531 350.499C685.494 431.032 674.859 508.828 630.147 564.757C585.424 620.697 506.652 654.718 364.371 647.652C222.389 640.601 138.977 659.166 106.22 715.303C73.4462 771.47 91.2796 865.317 151.798 1008.81C155.122 1016.69 158.277 1024.48 161.274 1032.18L160.607 1032.55C157.603 1024.82 154.437 1017.01 151.101 1009.1C90.485 865.377 72.6533 771.325 105.564 714.924C138.49 658.498 222.119 639.828 364.409 646.895C506.403 653.945 584.979 620.038 629.554 564.283C674.138 508.517 684.749 430.85 690.775 350.44C692.553 326.724 692.975 303.322 693.395 280.211C695.817 146.538 698.063 22.5244 961.063 -101.98C984.167 -112.918 1004.83 -124.384 1023.36 -136.222L1023.73 -135.557L1023.73 -135.56Z" fill="white"/>
</mask>
<g mask="url(#mask8_82_754)">
<path d="M1316.22 392.71L1014.31 -152.575L-525.617 700.053L-223.704 1245.34L1316.22 392.71Z" fill="url(#paint8_linear_82_754)"/>
</g>
<mask id="mask9_82_754" style="mask-type:luminance" maskUnits="userSpaceOnUse" x="-256" y="-141" width="1278" height="1366">
<path d="M-186.764 1224.89C-214.155 1208.85 -236.502 1197.28 -254.618 1189.5L-255.152 1188.54C-236.747 1196.35 -213.985 1208.1 -186.014 1224.47L-186.764 1224.89ZM1021.36 -139.84C1004.67 -129.956 986.373 -120.39 966.263 -111.245C701.807 9.00365 697.657 132.74 693.19 266.122C692.415 289.225 691.633 312.617 689.483 336.347C682.208 416.778 670.376 494.4 624.807 549.633C579.229 604.877 499.943 637.682 357.787 628.428C215.927 619.19 132.242 636.466 98.6234 692.097C64.9887 747.751 81.3774 841.86 139.681 986.27C146.302 1002.67 152.226 1018.7 157.464 1034.3L156.793 1034.67C151.548 1019.04 145.617 1002.99 138.98 986.552C80.5835 841.912 64.2031 747.594 97.9788 691.706C131.769 635.793 215.674 618.416 357.839 627.671C499.706 636.907 578.797 604.216 624.224 549.151C669.662 494.076 681.467 416.582 688.733 336.279C690.878 312.587 691.661 289.197 692.435 266.097C696.909 132.47 701.064 8.50913 965.95 -111.931C986.044 -121.067 1004.32 -130.628 1020.99 -140.502L1021.36 -139.84Z" fill="white"/>
</mask>
<g mask="url(#mask9_82_754)">
<path d="M1316.22 392.71L1009.07 -162.03L-530.852 690.598L-223.703 1245.34L1316.22 392.71Z" fill="url(#paint9_linear_82_754)"/>
</g>
<mask id="mask10_82_754" style="mask-type:luminance" maskUnits="userSpaceOnUse" x="-272" y="-146" width="1291" height="1363">
<path d="M-171.557 1216.47C-213.909 1189.27 -246.293 1171.12 -270.815 1160.25L-271.355 1159.28C-246.572 1170.14 -213.779 1188.46 -170.813 1216.05L-171.557 1216.47ZM1018.79 -144.491C1004.06 -136.407 988.214 -128.57 971.014 -121.065C704.737 -4.90552 698.684 118.754 692.16 252.05C691.029 275.133 689.887 298.508 687.373 322.209C678.859 402.522 665.834 479.95 619.421 534.475C573 589.01 493.216 620.59 351.219 609.146C209.519 597.724 125.578 613.713 91.1059 668.816C56.6172 723.945 71.5536 818.298 127.627 963.586C137.474 989.102 145.667 1013.68 152.249 1037.18L151.569 1037.56C144.986 1014.03 136.784 989.415 126.921 963.859C70.7605 818.335 55.8311 723.777 90.4634 668.418C125.11 613.034 209.275 596.948 351.279 608.394C492.987 619.813 572.573 588.343 618.845 533.986C665.126 479.618 678.125 402.316 686.624 322.133C689.132 298.484 690.275 275.105 691.407 252.013C697.941 118.47 704.003 -5.41053 970.714 -121.759C987.891 -129.251 1003.71 -137.078 1018.42 -145.153L1018.79 -144.491Z" fill="white"/>
</mask>
<g mask="url(#mask10_82_754)">
<path d="M1316.22 392.71L1003.86 -171.439L-536.062 681.189L-223.703 1245.34L1316.22 392.71Z" fill="url(#paint10_linear_82_754)"/>
</g>
<mask id="mask11_82_754" style="mask-type:luminance" maskUnits="userSpaceOnUse" x="-288" y="-151" width="1305" height="1360">
<path d="M-157.979 1208.95C-215.613 1169.17 -257.356 1144.21 -287.22 1130.62L-287.77 1129.63C-257.666 1143.18 -215.523 1168.31 -157.242 1208.54L-157.981 1208.95L-157.979 1208.95ZM1016.06 -149.415C1003.42 -142.989 989.979 -136.758 975.641 -130.763C707.605 -18.718 699.65 104.834 691.075 238.012C689.589 261.072 688.086 284.424 685.208 308.09C675.457 388.26 661.241 465.482 613.994 519.284C566.735 573.099 486.475 603.447 344.671 589.818C203.166 576.219 118.987 590.91 83.6717 645.476C48.3386 700.068 61.8228 794.638 115.649 940.776C128.664 976.11 138.576 1009.63 145.485 1040.93L144.796 1041.31C137.892 1009.98 127.974 976.42 114.939 941.034C61.0257 794.662 47.5576 699.888 83.0365 645.066C118.533 590.221 202.934 575.432 344.745 589.064C486.263 602.664 566.32 572.423 613.423 518.787C660.533 465.138 674.721 388.043 684.457 308C687.327 284.398 688.831 261.038 690.316 237.967C698.911 104.542 706.88 -19.2336 975.352 -131.462C989.662 -137.445 1003.08 -143.666 1015.69 -150.078L1016.06 -149.415Z" fill="white"/>
</mask>
<g mask="url(#mask11_82_754)">
<path d="M1316.22 392.71L998.682 -180.799L-541.244 671.829L-223.703 1245.34L1316.22 392.71Z" fill="url(#paint11_linear_82_754)"/>
</g>
<mask id="mask12_82_754" style="mask-type:luminance" maskUnits="userSpaceOnUse" x="-305" y="-156" width="1319" height="1358">
<path d="M-145.36 1201.96C-151.267 1197.96 -157.253 1193.77 -163.327 1189.39C-227.129 1143.37 -272.299 1115.25 -303.861 1100.57L-304.413 1099.57C-272.668 1114.17 -227.2 1142.39 -162.885 1188.78C-156.71 1193.23 -150.621 1197.49 -144.617 1201.55L-145.361 1201.96L-145.36 1201.96ZM1013.13 -154.701C1002.66 -149.774 991.712 -144.968 980.141 -140.341C710.409 -32.4345 700.552 90.9778 689.928 224.008C688.086 247.064 686.222 270.408 682.984 293.99C672.001 373.996 656.597 450.988 608.526 504.059C560.446 557.14 479.727 586.248 338.152 570.437C196.872 554.66 112.478 568.053 76.3237 622.069C40.1568 676.11 52.1801 770.877 103.75 917.825C119.899 963.846 130.9 1006.74 136.96 1045.64L136.256 1046.03C130.21 1007.11 119.208 964.165 103.032 918.076C51.3803 770.891 39.3719 675.918 75.6913 621.649C112.027 567.357 196.647 553.873 338.233 569.684C479.523 585.464 560.039 556.457 607.963 503.551C655.893 450.636 671.264 373.772 682.232 293.883C685.471 270.292 687.332 246.975 689.172 223.947C699.818 90.6765 709.695 -32.9617 979.86 -141.042C991.4 -145.658 1002.32 -150.449 1012.77 -155.363L1013.13 -154.701Z" fill="white"/>
</mask>
<g mask="url(#mask12_82_754)">
<path d="M1316.22 392.71L993.525 -190.113L-546.402 662.515L-223.703 1245.34L1316.22 392.71Z" fill="url(#paint12_linear_82_754)"/>
</g>
<mask id="mask13_82_754" style="mask-type:luminance" maskUnits="userSpaceOnUse" x="-322" y="-161" width="1333" height="1356">
<path d="M-131.971 1194.55C-147.143 1185.14 -162.923 1174.37 -179.299 1162.17C-243.938 1114.02 -289.3 1084.96 -320.73 1070.1L-321.287 1069.1C-289.675 1083.87 -244.003 1113.03 -178.847 1161.56C-162.36 1173.85 -146.478 1184.68 -131.214 1194.13L-131.971 1194.55ZM1010.06 -160.245C1001.84 -156.676 993.367 -153.18 984.514 -149.797C713.153 -46.0568 701.395 77.1888 688.723 210.042C686.527 233.07 684.302 256.384 680.703 279.907C668.489 359.735 651.903 436.482 603.018 488.804C554.126 541.136 472.969 569.001 331.654 551.01C190.634 533.059 106.045 545.152 69.062 598.606C32.0654 652.083 42.627 747.023 91.9305 894.749C111.229 952.575 122.554 1005.4 126.351 1051.52L125.627 1051.92C121.865 1005.78 110.544 952.906 91.2122 894.989C41.8323 747.026 31.289 651.88 68.4394 598.178C105.607 544.454 190.425 532.272 331.749 550.264C472.779 568.217 553.733 540.452 602.464 488.292C651.203 436.122 667.759 359.501 679.952 279.791C683.557 256.248 685.776 232.965 687.968 209.971C700.667 76.8761 712.446 -46.5967 984.242 -150.5C993.06 -153.873 1001.51 -157.354 1009.69 -160.91L1010.06 -160.245Z" fill="white"/>
</mask>
<g mask="url(#mask13_82_754)">
<path d="M1316.22 392.71L988.392 -199.383L-551.534 653.245L-223.703 1245.34L1316.22 392.71Z" fill="url(#paint13_linear_82_754)"/>
</g>
<mask id="mask14_82_754" style="mask-type:luminance" maskUnits="userSpaceOnUse" x="-339" y="-167" width="1346" height="1354">
<path d="M-117.158 1186.35C-141.418 1173.15 -167.431 1156.05 -195.119 1134.75C-260.892 1084.17 -306.545 1054.13 -337.833 1039.2L-338.389 1038.2C-306.916 1053.02 -260.952 1083.16 -194.659 1134.15C-166.838 1155.55 -140.716 1172.71 -116.372 1185.91L-117.156 1186.34L-117.158 1186.35ZM1006.83 -166.079C1000.94 -163.722 994.951 -161.395 988.753 -159.136C715.826 -59.5888 702.173 63.4641 687.459 196.106C684.908 219.086 682.328 242.355 678.361 265.837C664.919 345.468 647.152 421.951 597.469 473.517C547.778 525.09 466.202 551.7 325.179 531.538C184.452 511.416 99.6844 522.204 61.8846 575.082C24.0689 627.983 33.1698 723.073 80.1912 871.542C102.724 942.686 113.424 1006.15 113.153 1058.83L112.396 1059.25C112.728 1006.57 102.042 943.037 79.4702 871.772C32.3725 723.066 23.2965 627.766 61.2706 574.642C99.2605 521.495 184.256 510.621 325.287 530.788C466.023 550.911 547.394 524.397 596.925 472.993C646.463 421.58 664.196 345.222 677.616 265.712C681.579 242.244 684.159 218.989 686.705 196.023C701.45 63.1398 715.127 -60.1358 988.492 -159.845C994.654 -162.092 1000.61 -164.405 1006.46 -166.745L1006.83 -166.079Z" fill="white"/>
</mask>
<g mask="url(#mask14_82_754)">
<path d="M1316.22 392.71L983.284 -208.609L-556.642 644.019L-223.703 1245.34L1316.22 392.71Z" fill="url(#paint14_linear_82_754)"/>
</g>
<mask id="mask15_82_754" style="mask-type:luminance" maskUnits="userSpaceOnUse" x="-356" y="-173" width="1360" height="1350">
<path d="M-100.013 1176.85C-133.22 1162.28 -170.239 1139.35 -210.802 1107.15C-278.021 1053.78 -324.058 1022.72 -355.186 1007.87L-355.739 1006.87C-324.433 1021.61 -278.083 1052.76 -210.335 1106.55C-169.605 1138.89 -132.465 1161.86 -99.1844 1176.39L-100.014 1176.85L-100.013 1176.85ZM1003.45 -172.182C999.953 -170.897 996.463 -169.609 992.859 -168.355C718.434 -73.0208 702.887 49.8043 686.129 182.203C683.226 205.145 680.286 228.372 675.96 251.786C661.294 331.201 642.351 407.398 591.879 458.193C541.399 508.995 459.422 534.346 318.727 512.013C178.325 489.727 93.4017 499.21 54.7938 551.501C16.1664 603.813 23.8014 699.034 68.532 848.205C94.5258 934.894 103.297 1010.01 96.4601 1068.07L95.6482 1068.52C102.592 1010.49 93.854 935.281 67.8093 848.421C23.0077 699.008 15.3989 603.58 54.187 551.049C92.9932 498.494 178.142 488.929 318.847 511.265C459.258 533.552 541.028 508.295 591.343 457.662C641.667 407.018 660.571 330.943 675.217 251.648C679.54 228.239 682.477 205.028 685.38 182.107C702.168 49.4664 717.743 -73.5839 992.611 -169.068C996.173 -170.305 999.62 -171.581 1003.08 -172.851L1003.45 -172.182Z" fill="white"/>
</mask>
<g mask="url(#mask15_82_754)">
<path d="M1316.22 392.708L978.199 -217.793L-561.728 634.835L-223.705 1245.34L1316.22 392.708Z" fill="url(#paint15_linear_82_754)"/>
</g>
<mask id="mask16_82_754" style="mask-type:luminance" maskUnits="userSpaceOnUse" x="-374" y="-180" width="1374" height="1345">
<path d="M-78.5352 1164.96C-120.582 1153.1 -170.109 1125.42 -226.324 1079.35C-295.339 1022.8 -341.844 990.708 -372.763 976.117L-373.307 975.136C-342.208 989.593 -295.4 1021.77 -225.844 1078.76C-169.378 1125.03 -119.699 1152.73 -77.5968 1164.44L-78.5342 1164.96L-78.5352 1164.96ZM999.938 -178.53C998.891 -178.178 997.889 -177.813 996.832 -177.463C720.971 -86.3679 703.535 36.2034 684.741 168.33C681.487 191.213 678.191 214.385 673.5 237.747C657.612 316.927 637.498 392.827 586.252 442.838C534.996 492.856 452.637 516.941 312.302 492.445C172.26 467.999 87.2025 476.171 47.7924 527.859C8.36538 579.573 14.5325 674.9 56.9586 824.743C86.2973 928.362 91.5076 1015.23 75.4447 1076.12C75.0689 1077.54 74.6811 1078.95 74.2826 1080.35L73.3475 1080.86C73.8184 1079.24 74.2739 1077.59 74.7138 1075.93C90.7438 1015.17 85.5303 928.436 56.232 824.947C13.7382 674.863 7.59742 579.329 47.1912 527.401C86.7995 475.448 172.089 467.197 312.432 491.697C452.481 516.145 534.63 492.15 585.721 442.295C636.82 392.429 656.894 316.655 672.759 237.597C677.437 214.275 680.733 191.104 683.99 168.22C702.823 35.8563 720.29 -86.9393 996.596 -178.18C997.605 -178.512 998.562 -178.866 999.565 -179.204L999.938 -178.53Z" fill="white"/>
</mask>
<g mask="url(#mask16_82_754)">
<path d="M1316.22 392.71L973.137 -226.936L-566.79 625.692L-223.703 1245.34L1316.22 392.71Z" fill="url(#paint16_linear_82_754)"/>
</g>
</g>
<defs>
<linearGradient id="paint0_linear_82_754" x1="-73.4819" y1="1262.5" x2="1076.91" y2="-110.897" gradientUnits="userSpaceOnUse">
<stop stop-color="#0463EE"/>
<stop offset="1" stop-color="#FF00E9"/>
</linearGradient>
<linearGradient id="paint1_linear_82_754" x1="-73.9801" y1="1262.09" x2="1076.41" y2="-111.32" gradientUnits="userSpaceOnUse">
<stop stop-color="#0463EE"/>
<stop offset="1" stop-color="#FF00E9"/>
</linearGradient>
<linearGradient id="paint2_linear_82_754" x1="-74.6778" y1="1261.5" x2="1075.71" y2="-111.897" gradientUnits="userSpaceOnUse">
<stop stop-color="#0463EE"/>
<stop offset="1" stop-color="#FF00E9"/>
</linearGradient>
<linearGradient id="paint3_linear_82_754" x1="-75.5821" y1="1260.75" x2="1074.81" y2="-112.656" gradientUnits="userSpaceOnUse">
<stop stop-color="#0463EE"/>
<stop offset="1" stop-color="#FF00E9"/>
</linearGradient>
<linearGradient id="paint4_linear_82_754" x1="-76.6882" y1="1259.82" x2="1073.7" y2="-113.582" gradientUnits="userSpaceOnUse">
<stop stop-color="#0463EE"/>
<stop offset="1" stop-color="#FF00E9"/>
</linearGradient>
<linearGradient id="paint5_linear_82_754" x1="-77.9963" y1="1258.72" x2="1072.4" y2="-114.685" gradientUnits="userSpaceOnUse">
<stop stop-color="#0463EE"/>
<stop offset="1" stop-color="#FF00E9"/>
</linearGradient>
<linearGradient id="paint6_linear_82_754" x1="-81.469" y1="1255.81" x2="1068.92" y2="-117.581" gradientUnits="userSpaceOnUse">
<stop stop-color="#0463EE"/>
<stop offset="1" stop-color="#FF00E9"/>
</linearGradient>
<linearGradient id="paint7_linear_82_754" x1="-85.6618" y1="1252.3" x2="1064.73" y2="-121.101" gradientUnits="userSpaceOnUse">
<stop stop-color="#0463EE"/>
<stop offset="1" stop-color="#FF00E9"/>
</linearGradient>
<linearGradient id="paint8_linear_82_754" x1="-150.5" y1="1197.99" x2="999.889" y2="-175.41" gradientUnits="userSpaceOnUse">
<stop stop-color="#0463EE"/>
<stop offset="1" stop-color="#FF00E9"/>
</linearGradient>
<linearGradient id="paint9_linear_82_754" x1="-154.364" y1="1194.75" x2="996.026" y2="-178.65" gradientUnits="userSpaceOnUse">
<stop stop-color="#0463EE"/>
<stop offset="1" stop-color="#FF00E9"/>
</linearGradient>
<linearGradient id="paint10_linear_82_754" x1="-158.212" y1="1191.53" x2="992.178" y2="-181.87" gradientUnits="userSpaceOnUse">
<stop stop-color="#0463EE"/>
<stop offset="1" stop-color="#FF00E9"/>
</linearGradient>
<linearGradient id="paint11_linear_82_754" x1="-162.038" y1="1188.33" x2="988.353" y2="-185.076" gradientUnits="userSpaceOnUse">
<stop stop-color="#0463EE"/>
<stop offset="1" stop-color="#FF00E9"/>
</linearGradient>
<linearGradient id="paint12_linear_82_754" x1="-165.846" y1="1185.14" x2="984.542" y2="-188.262" gradientUnits="userSpaceOnUse">
<stop stop-color="#0463EE"/>
<stop offset="1" stop-color="#FF00E9"/>
</linearGradient>
<linearGradient id="paint13_linear_82_754" x1="-169.636" y1="1181.96" x2="980.753" y2="-191.439" gradientUnits="userSpaceOnUse">
<stop stop-color="#0463EE"/>
<stop offset="1" stop-color="#FF00E9"/>
</linearGradient>
<linearGradient id="paint14_linear_82_754" x1="-173.406" y1="1178.8" x2="976.981" y2="-194.597" gradientUnits="userSpaceOnUse">
<stop stop-color="#0463EE"/>
<stop offset="1" stop-color="#FF00E9"/>
</linearGradient>
<linearGradient id="paint15_linear_82_754" x1="-177.162" y1="1175.66" x2="973.227" y2="-197.742" gradientUnits="userSpaceOnUse">
<stop stop-color="#0463EE"/>
<stop offset="1" stop-color="#FF00E9"/>
</linearGradient>
<linearGradient id="paint16_linear_82_754" x1="-180.901" y1="1172.53" x2="969.49" y2="-200.874" gradientUnits="userSpaceOnUse">
<stop stop-color="#0463EE"/>
<stop offset="1" stop-color="#FF00E9"/>
</linearGradient>
<clipPath id="clip0_82_754">
<rect width="669.496" height="1760.21" fill="white" transform="translate(991.927 -193) rotate(61.0275)"/>
</clipPath>
</defs>
</svg>
