<svg preserveAspectRatio="none" width="100%" height="100%" overflow="visible" style="display: block;" viewBox="0 0 24 24" fill="none" xmlns="http://www.w3.org/2000/svg">
<g id="material-symbols:settings-outline" opacity="0.75">
<path id="Vector" d="M9.25 22L8.85 18.8C8.63333 18.7167 8.42933 18.6167 8.238 18.5C8.04667 18.3833 7.859 18.2583 7.675 18.125L4.7 19.375L1.95 14.625L4.525 12.675C4.50833 12.5583 4.5 12.446 4.5 12.338V11.663C4.5 11.5543 4.50833 11.4417 4.525 11.325L1.95 9.375L4.7 4.625L7.675 5.875C7.85833 5.74167 8.05 5.61667 8.25 5.5C8.45 5.38333 8.65 5.28333 8.85 5.2L9.25 2H14.75L15.15 5.2C15.3667 5.28333 15.571 5.38333 15.763 5.5C15.955 5.61667 16.1423 5.74167 16.325 5.875L19.3 4.625L22.05 9.375L19.475 11.325C19.4917 11.4417 19.5 11.5543 19.5 11.663V12.337C19.5 12.4457 19.4833 12.5583 19.45 12.675L22.025 14.625L19.275 19.375L16.325 18.125C16.1417 18.2583 15.95 18.3833 15.75 18.5C15.55 18.6167 15.35 18.7167 15.15 18.8L14.75 22H9.25ZM11 20H12.975L13.325 17.35C13.8417 17.2167 14.321 17.021 14.763 16.763C15.205 16.505 15.609 16.1923 15.975 15.825L18.45 16.85L19.425 15.15L17.275 13.525C17.3583 13.2917 17.4167 13.046 17.45 12.788C17.4833 12.53 17.5 12.2673 17.5 12C17.5 11.7327 17.4833 11.4703 17.45 11.213C17.4167 10.9557 17.3583 10.7097 17.275 10.475L19.425 8.85L18.45 7.15L15.975 8.2C15.6083 7.81667 15.2043 7.496 14.763 7.238C14.3217 6.98 13.8423 6.784 13.325 6.65L13 4H11.025L10.675 6.65C10.1583 6.78333 9.67933 6.97933 9.238 7.238C8.79667 7.49667 8.39233 7.809 8.025 8.175L5.55 7.15L4.575 8.85L6.725 10.45C6.64167 10.7 6.58333 10.95 6.55 11.2C6.51667 11.45 6.5 11.7167 6.5 12C6.5 12.2667 6.51667 12.525 6.55 12.775C6.58333 13.025 6.64167 13.275 6.725 13.525L4.575 15.15L5.55 16.85L8.025 15.8C8.39167 16.1833 8.796 16.5043 9.238 16.763C9.68 17.0217 10.159 17.2173 10.675 17.35L11 20ZM12.05 15.5C13.0167 15.5 13.8417 15.1583 14.525 14.475C15.2083 13.7917 15.55 12.9667 15.55 12C15.55 11.0333 15.2083 10.2083 14.525 9.525C13.8417 8.84167 13.0167 8.5 12.05 8.5C11.0667 8.5 10.2373 8.84167 9.562 9.525C8.88667 10.2083 8.54933 11.0333 8.55 12C8.55067 12.9667 8.88833 13.7917 9.563 14.475C10.2377 15.1583 11.0667 15.5 12.05 15.5Z" fill="var(--fill-0, white)"/>
</g>
</svg>
