<svg width="55" height="60" viewBox="0 0 55 60" fill="none" xmlns="http://www.w3.org/2000/svg">
<path d="M49.7751 11.5442L31.994 1.25937C29.0555 -0.41979 25.4573 -0.41979 22.5487 1.25937L4.73763 11.5442C1.7991 13.2234 0 16.3418 0 19.7301V40.2699C0 43.6582 1.7991 46.7766 4.73763 48.4558L22.5187 58.7406C25.4573 60.4198 29.0555 60.4198 31.964 58.7406L49.7451 48.4558C51.1847 47.6282 52.3806 46.4357 53.2124 44.9985C54.0441 43.5614 54.4823 41.9304 54.4828 40.2699V19.7301C54.4828 16.3418 52.6837 13.2234 49.7451 11.5442H49.7751ZM42.7886 22.7586L28.8456 29.7751V45.0075C28.8456 45.2774 28.7556 45.5772 28.6357 45.8171C28.2159 46.5667 27.2264 46.8366 26.4768 46.3868L13.6432 39.1005C13.2221 38.8503 12.8734 38.4948 12.6315 38.0689C12.3896 37.643 12.2629 37.1614 12.2639 36.6717V22.4888C12.2639 21.8291 12.4738 21.1994 12.8336 20.5997H12.8036C13.1934 20.03 13.6732 19.6102 14.2429 19.3103L27.5262 12.5937C28.3658 12.1739 29.3253 12.2339 30.1349 12.6837L42.9085 19.97C43.1784 20.1199 43.4183 20.3598 43.5682 20.6597C43.958 21.4393 43.6282 22.3988 42.8486 22.7286L42.7886 22.7586Z" fill="#4427C5"/>
</svg>
